<?xml version="1.0" encoding="utf-8"?>
<!-- Generator: Adobe Illustrator 19.0.0, SVG Export Plug-In . SVG Version: 6.00 Build 0)  -->
<svg version="1.1" id="Calque_1" xmlns="http://www.w3.org/2000/svg" xmlns:xlink="http://www.w3.org/1999/xlink" x="0px" y="0px"
	 viewBox="0 0 595.3 841.9" style="enable-background:new 0 0 595.3 841.9;" xml:space="preserve">
<style type="text/css">
	.st0{fill:#030303;}
</style>
<g>
	<path class="st0" d="M296.5,507.4l177.9-102.7v0l0-205.4L296.5,96.6L118.6,199.3v0l0,205.4L296.5,507.4z M330.9,473.8l-21.8-12.6
		l0.8-0.4l-0.8-0.4l13.5-7.8l8.3-4.8l22.5,13L330.9,473.8z M342.8,401.3l11.2-6.5l11.2-6.5l22.5,13l-11.2,6.5l-11.2,6.5v0
		L342.8,401.3z M388.4,308.5l-11.2-6.5l11.2-6.5l11.2-6.5l22.5,13l-22.5,13L388.4,308.5z M422.1,341.7l-22.5,13l-22.5-13l11.2-6.5
		l11.2-6.5L422.1,341.7z M388.4,268.8l-11.2-6.5l22.5-13l22.5,13l-22.5,13L388.4,268.8z M376.5,248.9l-11.2,6.5l-22.5-13L354,236
		l11.2-6.5l11.2,6.5l11.2,6.5L376.5,248.9z M376.5,275.7l11.2,6.5l-11.2,6.5l-11.2,6.5l-22.5-13l22.5-13L376.5,275.7z M376.5,315.4
		l11.2,6.5l-11.2,6.5l-11.2,6.5l-22.5-13l22.5-13L376.5,315.4z M376.5,355.1l11.2,6.5l-11.2,6.5l-11.2,6.5l-11.2-6.5l-11.2-6.5
		l22.5-13L376.5,355.1z M377.2,381.4l11.2-6.5l11.2-6.5l22.5,13l-22.5,13l-11.2-6.5L377.2,381.4z M411.6,361.6l11.2-6.5l11.2-6.5
		l22.5,13l-22.5,13l-11.2-6.5L411.6,361.6z M422.8,328.4l-11.2-6.5l11.2-6.5l11.2-6.5l22.5,13l-22.5,13L422.8,328.4z M422.8,288.7
		l-11.2-6.5l11.2-6.5l11.2-6.5l22.5,13l-22.5,13L422.8,288.7z M422.8,248.9l-11.2-6.5l11.2-6.5l11.2-6.5l22.5,13l-22.5,13
		L422.8,248.9z M399.7,235.6l-11.2-6.5l-11.2-6.5l11.2-6.5l11.2-6.5l22.5,13L399.7,235.6z M365.3,215.7l-22.5-13l22.5-13l11.2,6.5
		l11.2,6.5L365.3,215.7z M330.9,195.9l-22.5-13l4.6-2.6l17.9-10.3l11.2,6.5l11.2,6.5L330.9,195.9z M342.1,216.1l11.2,6.5l-11.2,6.5
		l-11.2,6.5l-22.5-13l7.6-4.4l14.9-8.6L342.1,216.1z M342.1,255.8l11.2,6.5l-22.5,13l-22.5-13l22.5-13L342.1,255.8z M342.1,295.5
		l11.2,6.5l-11.2,6.5l-11.2,6.5v0l-22.5-13l22.5-13L342.1,295.5z M353.4,341.7l-11.2,6.5l-11.2,6.5l-22.5-13l22.5-13L353.4,341.7z
		 M342.1,374.9l11.2,6.5l-11.2,6.5l-11.2,6.5l-22.5-13l22.5-13L342.1,374.9z M330.9,408.2l11.2,6.5l11.2,6.5l-11.2,6.5l-11.2,6.5
		l-22.5-13l14.2-8.2L330.9,408.2z M365.3,454l-22.5-13l11.2-6.5l11.2-6.5l11.2,6.5l11.2,6.5L365.3,454z M399.7,434.1l-11.2-6.5
		l-11.2-6.5l11.2-6.5l11.2-6.5l11.2,6.5l11.2,6.5L399.7,434.1z M434,414.3l-11.2-6.5l-11.2-6.5l22.5-13l22.5,13L434,414.3z
		 M462.5,391l-16.5-9.5l16.5-9.5V391z M462.5,351.3l-16.5-9.5l16.5-9.5V351.3z M462.5,311.6L446,302l16.5-9.5V311.6z M462.5,271.8
		l-16.5-9.5l16.5-9.5V271.8z M462.5,232.1l-16.5-9.5l16.5-9.5V232.1z M434,189.8l22.5,13l-22.5,13l-22.5-13l11.2-6.5L434,189.8z
		 M399.7,169.9l22.5,13l-22.5,13l-22.5-13l11.2-6.5L399.7,169.9z M365.3,150.1l22.5,13l-11.2,6.5l-11.2,6.5l-11.2-6.5l-11.2-6.5
		l11.2-6.5L365.3,150.1z M353.4,143.2l-11.2,6.5l-11.2,6.5l-22.5-13l7.1-4.1l15.4-8.9L353.4,143.2z M302.4,113.8l16.5,9.5l-8.3,4.8
		l-8.3,4.8V113.8z M302.4,153.5L319,163l-9.4,5.4l-7.2,4.1V153.5z M302.4,193.2l16.5,9.5l-16.5,9.5V193.2z M302.4,232.9l16.5,9.5
		l-16.5,9.5V232.9z M302.4,272.6l16.5,9.5l-16.5,9.5V272.6z M302.4,312.3l16.5,9.5l-16.5,9.5V312.3z M302.4,352l16.5,9.5l-16.5,9.5
		V352z M302.4,391.8l3.5,2l13,7.5l-16.5,9.5V391.8z M302.4,431.5l8.9,5.2l7.6,4.4l-16.5,9.5V431.5z M302.4,471.2l8.2,4.7l8.3,4.8
		l-16.5,9.5V471.2z M158.9,414.3l-22.5-13l22.5-13l22.5,13l-11.2,6.5L158.9,414.3z M250.2,202.8l-11.2,6.5l-11.2,6.5l-22.5-13
		l11.2-6.5l11.2-6.5v0L250.2,202.8z M216.5,328.4l-11.2-6.5l11.2-6.5l11.2-6.5l22.5,13l-22.5,13L216.5,328.4z M250.2,361.6
		l-11.2,6.5l-11.2,6.5l-11.2-6.5l-11.2-6.5l11.2-6.5l11.2-6.5L250.2,361.6z M216.5,288.7l-11.2-6.5l11.2-6.5l11.2-6.5l22.5,13
		l-22.5,13L216.5,288.7z M216.5,249l-11.2-6.5l11.2-6.5l11.2-6.5l11.2,6.5l11.2,6.5l-22.5,13L216.5,249z M215.8,262.3l-11.2,6.5
		l-11.2,6.5l-22.5-13l22.5-13L215.8,262.3z M204.5,295.5l11.2,6.5l-11.2,6.5l-11.2,6.5l-22.5-13l22.5-13L204.5,295.5z M204.5,335.2
		l11.2,6.5l-22.5,13l-22.5-13l22.5-13L204.5,335.2z M204.5,375l11.2,6.5l-11.2,6.5l-11.2,6.5l-22.5-13l22.5-13L204.5,375z
		 M227.7,388.3l22.5,13l-22.5,13l-11.2-6.5l-11.2-6.5L227.7,388.3z M262.1,408.2l22.5,13l-4.6,2.6l-17.9,10.3l-11.2-6.5l-11.2-6.5
		L262.1,408.2z M250.9,387.9l-11.2-6.5l11.2-6.5l11.2-6.5l22.5,13l-7.6,4.4l-14.9,8.6L250.9,387.9z M250.8,348.2l-11.2-6.5l22.5-13
		l22.5,13l-22.5,13L250.8,348.2z M250.8,308.5l-11.2-6.5l11.2-6.5l11.2-6.5v0l22.5,13l-22.5,13L250.8,308.5z M239.6,262.3l11.2-6.5
		l11.2-6.5l22.5,13l-22.5,13L239.6,262.3z M250.8,229.1l-11.2-6.5l11.2-6.5l11.2-6.5l22.5,13l-22.5,13L250.8,229.1z M262.1,195.9
		l-11.2-6.5l-11.2-6.5l11.2-6.5l11.2-6.5l22.5,13l-14.2,8.2L262.1,195.9z M215.8,222.6l-11.2,6.5l-11.2,6.5l-22.5-13l22.5-13
		l11.2,6.5L215.8,222.6z M181.4,242.5l-11.2,6.5l-11.2,6.5l-22.5-13l22.5-13l11.2,6.5L181.4,242.5z M170.2,275.7l11.2,6.5l-11.2,6.5
		l-11.2,6.5l-22.5-13l22.5-13L170.2,275.7z M170.2,315.4l11.2,6.5l-11.2,6.5l-11.2,6.5l-22.5-13l22.5-13L170.2,315.4z M170.2,355.1
		l11.2,6.5l-11.2,6.5l-11.2,6.5l-22.5-13l22.5-13L170.2,355.1z M193.3,434.1l-22.5-13l22.5-13l22.5,13l-11.2,6.5L193.3,434.1z
		 M227.7,454l-22.5-13l11.2-6.5l11.2-6.5l11.2,6.5l11.2,6.5l-11.2,6.5L227.7,454z M239.6,460.9l11.2-6.5l11.2-6.5l22.5,13l-7.1,4.1
		l-15.4,8.9L239.6,460.9z M290.5,490.3l-16.5-9.5l8.3-4.8l8.3-4.8V490.3z M290.5,450.6L274,441l9.4-5.4l7.2-4.1V450.6z M290.5,410.8
		l-16.5-9.5l16.5-9.5V410.8z M290.5,371.1l-16.5-9.5l16.5-9.5V371.1z M290.5,331.4l-16.5-9.5l16.5-9.5V331.4z M290.5,291.7
		l-16.5-9.5l16.5-9.5V291.7z M290.5,252l-16.5-9.5l16.5-9.5V252z M290.5,212.3l-3.5-2l-13-7.5l16.5-9.5V212.3z M290.5,172.6
		l-8.9-5.2L274,163l16.5-9.5V172.6z M290.5,113.8v19.1l-8.2-4.7l-8.3-4.8L290.5,113.8z M262.1,130.2l21.8,12.6l-0.8,0.4l0.8,0.4
		l-13.5,7.8l-8.3,4.8l-22.5-13L262.1,130.2z M227.7,150.1l22.5,13l-11.2,6.5l-11.2,6.5l-11.2-6.5l-11.2-6.5L227.7,150.1z
		 M193.3,169.9l11.2,6.5l11.2,6.5l-11.2,6.5l-11.2,6.5l-11.2-6.5l-11.2-6.5L193.3,169.9z M158.9,189.8l11.2,6.5l11.2,6.5l-22.5,13
		l-22.5-13L158.9,189.8z M130.5,213.1l16.5,9.5l-16.5,9.5V213.1z M130.5,252.8l16.5,9.5l-16.5,9.5V252.8z M130.5,292.5L147,302
		l-16.5,9.5V292.5z M130.5,332.2l16.5,9.5l-16.5,9.5V332.2z M130.5,371.9l16.5,9.5l-16.5,9.5V371.9z"/>
	<path id="XMLID_34_" class="st0" d="M89.9,609.4v-18.7c0-0.7-0.5-1.3-1.5-1.3H42.9v-25.7h55c1,0,1.7-0.7,1.7-1.3v-18.8
		c0-0.7-0.7-1.3-1.7-1.3H22.5c-0.8,0-1.5,0.7-1.5,1.3v113c0,0.7,0.7,1.3,1.5,1.3h19c1,0,1.5-0.7,1.5-1.3v-45.8h45.5
		C89.4,610.7,89.9,610,89.9,609.4z"/>
	<path class="st0" d="M200,656l-45.5-117.3c-0.5-1.2-2.5-1.2-3,0L106.1,656c-0.5,1,0.2,1.8,1.5,1.8h20.5c0.7,0,1.3-0.3,1.5-0.8
		l4.5-12.3h37.8l4.8,12.3c0.2,0.5,0.8,0.8,1.3,0.8h20.7C199.9,657.8,200.5,657,200,656z M141.2,625l11.8-35l11.7,35H141.2z"/>
	<path class="st0" d="M293.2,623.9c0,0,0.7-18-17.8-24.3c8.8-3.7,16.2-11.3,16.2-25c0-34.1-39.5-33.3-39.5-33.3h-38
		c-1,0-1.7,0.7-1.7,1.3v114c0,0.7,0.7,1.3,1.7,1.3h38C259.8,657.8,293.2,656.3,293.2,623.9z M234.5,562H252c0,0,17.2-0.2,17.2,13.8
		c0,12.8-17.2,12.8-17.2,12.8h-17.5V562z M252,636.5h-17.5v-26H252c0,0,18.8-1,18.8,12.8C270.8,634.5,259.3,636.5,252,636.5z"/>
	<path id="XMLID_28_" class="st0" d="M333.5,541.2h-19.2c-1,0-1.7,0.7-1.7,1.3v114c0,0.7,0.7,1.3,1.7,1.3h61.3c1,0,1.7-0.7,1.7-1.3
		v-19c0-0.7-0.7-1.3-1.7-1.3H335v-93.6C335,541.9,334.3,541.2,333.5,541.2z"/>
	<path class="st0" d="M433.4,538.7c-0.5-1.2-2.5-1.2-3,0L384.9,656c-0.5,1,0.2,1.8,1.5,1.8h20.5c0.7,0,1.3-0.3,1.5-0.8l4.5-12.3
		h37.8l4.8,12.3c0.2,0.5,0.8,0.8,1.3,0.8h20.7c1.2,0,1.8-0.8,1.3-1.8L433.4,538.7z M420.1,625l11.8-35l11.7,35H420.1z"/>
	<path class="st0" d="M554.2,599.5c8.8-3.7,16.2-11.3,16.2-25c0-34.1-39.5-33.3-39.5-33.3h-38c-1,0-1.7,0.7-1.7,1.3v114
		c0,0.7,0.7,1.3,1.7,1.3h38c7.8,0,41.2-1.5,41.2-34C572,623.9,572.7,605.9,554.2,599.5z M513.4,562h17.5c0,0,17.2-0.2,17.2,13.8
		c0,12.8-17.2,12.8-17.2,12.8h-17.5V562z M530.9,636.5h-17.5v-26h17.5c0,0,18.8-1,18.8,12.8C549.7,634.5,538.2,636.5,530.9,636.5z"
		/>
	<path id="XMLID_22_" class="st0" d="M102.3,719.9c2.8,0,5.4,1.2,7.3,3c0.2,0.1,0.5,0.1,0.7,0l3.8-3.8c0.2-0.1,0.2-0.4,0-0.6
		c-3-3-7.1-4.8-11.7-4.8c-9.8,0-16.7,7.3-16.7,17.3c0,10.4,7.5,17,16.7,17c4.6,0,8.8-1.9,11.7-4.8c0.2-0.1,0.2-0.4,0-0.6l-3.8-3.8
		c-0.2-0.1-0.5-0.1-0.7,0c-1.9,1.9-4.5,3-7.3,3c-5.7,0-10.2-4.1-10.2-10.9C92,724.8,95.9,719.9,102.3,719.9z"/>
	<path class="st0" d="M130.3,713.6c-0.1-0.3-0.7-0.3-0.9,0l-13,33.5c-0.1,0.3,0,0.5,0.4,0.5h5.9c0.2,0,0.4-0.1,0.4-0.2l1.3-3.5h10.8
		l1.4,3.5c0,0.1,0.2,0.2,0.4,0.2h5.9c0.3,0,0.5-0.2,0.4-0.5L130.3,713.6z M126.5,738.2l3.4-10l3.3,10H126.5z"/>
	<path id="XMLID_19_" class="st0" d="M164.6,741.5h-11.5v-26.8c0-0.2-0.2-0.4-0.5-0.4h-5.4c-0.3,0-0.5,0.2-0.5,0.4v32.6
		c0,0.2,0.2,0.4,0.5,0.4h17.3c0.3,0,0.5-0.2,0.5-0.4v-5.4C165.1,741.7,164.9,741.5,164.6,741.5z"/>
	<path class="st0" d="M176.6,714.3h-5.4c-0.3,0-0.5,0.2-0.5,0.4v32.6c0,0.2,0.2,0.4,0.5,0.4h5.4c8.2,0,19.3-2.6,19.3-16.8
		C195.9,716.2,184.6,714.3,176.6,714.3z M177.1,741.7v-21.5c7.2-0.4,12.5,1.9,12.5,10.7C189.6,741.1,181.1,741.9,177.1,741.7z"/>
	<path class="st0" d="M212.8,713.6c-0.1-0.3-0.7-0.3-0.9,0l-13,33.5c-0.1,0.3,0,0.5,0.4,0.5h5.9c0.2,0,0.4-0.1,0.4-0.2l1.3-3.5h10.8
		l1.4,3.5c0,0.1,0.2,0.2,0.4,0.2h5.9c0.3,0,0.5-0.2,0.4-0.5L212.8,713.6z M209,738.2l3.4-10l3.3,10H209z"/>
	<path id="XMLID_14_" class="st0" d="M243.8,729.2c-2.4-1.1-4.7-1.1-5-1.1c-2.2,0-4.2-1.6-4.2-4c0-2.8,1.9-4.1,4.2-4.1
		c2.2,0,4,1.1,4.1,3.5c0,0.2,0.2,0.4,0.5,0.4h5.3c0.3,0,0.5-0.2,0.5-0.4c-0.1-5.7-4.6-9.6-10.4-9.6c-5.5,0-10.6,3.9-10.6,10.2
		c0,4,2,7.2,5.5,8.9c2.4,1.1,4.8,1.1,5,1.1c1.9,0.1,4.2,1.7,4.2,4.1c0,2.3-2,3.8-4.2,3.8c-2.2,0-4.1-1.2-4.2-3.7
		c0-0.2-0.2-0.3-0.5-0.3h-5.4c-0.3,0-0.5,0.1-0.5,0.3c0.1,6.3,4.7,9.7,10.6,9.8c5.4,0,10.5-3.5,10.5-9.9
		C249.3,734.3,247.4,730.9,243.8,729.2z"/>
	<path class="st0" d="M277.5,714.3h-5.4c-0.3,0-0.5,0.2-0.5,0.4v32.6c0,0.2,0.2,0.4,0.5,0.4h5.4c8.2,0,19.3-2.6,19.3-16.8
		C296.9,716.2,285.6,714.3,277.5,714.3z M278,741.7v-21.5c7.2-0.4,12.5,1.9,12.5,10.7C290.5,741.1,282,741.9,278,741.7z"/>
	<path class="st0" d="M313.8,713.6c-0.1-0.3-0.7-0.3-0.9,0l-13,33.5c-0.1,0.3,0.1,0.5,0.4,0.5h5.9c0.2,0,0.4-0.1,0.4-0.2l1.3-3.5
		h10.8l1.4,3.5c0,0.1,0.2,0.2,0.4,0.2h5.9c0.3,0,0.5-0.2,0.4-0.5L313.8,713.6z M310,738.2l3.4-10l3.3,10H310z"/>
	<path class="st0" d="M363.1,733.2c3.3-1.2,6.1-3.9,6.1-9c0-9.8-9.4-9.9-11.3-9.9h-10.8c-0.2,0-0.4,0.2-0.4,0.4v32.6
		c0,0.2,0.2,0.4,0.4,0.4h5.4c0.3,0,0.5-0.2,0.5-0.4v-13.1h3.6l6.1,13.2c0.1,0.1,0.3,0.2,0.4,0.2h6c0.3,0,0.5-0.2,0.4-0.5
		C367.4,742.4,365.2,737.9,363.1,733.2z M357.9,728.1h-4.9v-7.7h4.9c1,0,4.9,0.2,4.9,3.9C362.9,727.9,359.3,728.1,357.9,728.1z"/>
	<path class="st0" d="M385.9,713.6c-0.1-0.3-0.7-0.3-0.9,0l-13,33.5c-0.1,0.3,0,0.5,0.4,0.5h5.9c0.2,0,0.4-0.1,0.4-0.2l1.3-3.5h10.8
		l1.4,3.5c0,0.1,0.2,0.2,0.4,0.2h5.9c0.3,0,0.5-0.2,0.4-0.5L385.9,713.6z M382.1,738.2l3.4-10l3.3,10H382.1z"/>
	<path id="XMLID_5_" class="st0" d="M408.3,714.3H403c-0.3,0-0.5,0.2-0.5,0.4v32.6c0,0.2,0.2,0.4,0.5,0.4h5.4c0.3,0,0.5-0.2,0.5-0.4
		v-32.6C408.8,714.5,408.6,714.3,408.3,714.3z"/>
	<path id="XMLID_4_" class="st0" d="M443.2,714.3h-5.3c-0.3,0-0.5,0.2-0.5,0.4v22.1l-15.3-22.4c0-0.1-0.2-0.1-0.3-0.1h-5.5
		c-0.3,0-0.4,0.2-0.4,0.4v32.6c0,0.2,0.1,0.4,0.4,0.4h5.4c0.2,0,0.4-0.2,0.4-0.4v-21.9l15.2,22.2c0,0.1,0.3,0.1,0.4,0.1h5.4
		c0.3,0,0.5-0.2,0.5-0.4v-32.6C443.7,714.4,443.5,714.3,443.2,714.3z"/>
	<path id="XMLID_3_" class="st0" d="M475.9,714.3h-5.4c-0.3,0-0.5,0.2-0.5,0.4v13h-12.5v-13c0-0.2-0.2-0.4-0.5-0.4h-5.4
		c-0.3,0-0.5,0.2-0.5,0.4v32.6c0,0.2,0.2,0.4,0.5,0.4h5.4c0.3,0,0.5-0.2,0.5-0.4v-13.5H470v13.5c0,0.2,0.2,0.4,0.5,0.4h5.4
		c0.2,0,0.4-0.2,0.4-0.4v-32.6C476.3,714.5,476.2,714.3,475.9,714.3z"/>
	<path class="st0" d="M494.3,713.6c-0.1-0.3-0.7-0.3-0.9,0l-13,33.5c-0.1,0.3,0.1,0.5,0.4,0.5h5.9c0.2,0,0.4-0.1,0.4-0.2l1.3-3.5
		h10.8l1.4,3.5c0,0.1,0.2,0.2,0.4,0.2h5.9c0.3,0,0.5-0.2,0.4-0.5L494.3,713.6z M490.5,738.2l3.4-10l3.3,10H490.5z"/>
</g>
</svg>
