<?xml version="1.0" encoding="utf-8"?>
<!-- Generator: Adobe Illustrator 19.0.0, SVG Export Plug-In . SVG Version: 6.00 Build 0)  -->
<svg version="1.1" id="Calque_1" xmlns="http://www.w3.org/2000/svg" xmlns:xlink="http://www.w3.org/1999/xlink" x="0px" y="0px"
	 viewBox="378.6 338.2 136.9 126" style="enable-background:new 378.6 338.2 136.9 126;" xml:space="preserve">
<style type="text/css">
	.st0{fill:#030303;}
</style>
<g>
	<path class="st0" d="M291.1,412l22.6-13l0,0v-26.1l-22.6-13l-22.6,13l0,0v26.1L291.1,412z M295.5,407.7l-2.8-1.6l0.1-0.1l-0.1-0.1
		l1.7-1l1.1-0.6l2.9,1.7L295.5,407.7z M297,398.5l1.4-0.8l1.4-0.8l2.9,1.7l-1.4,0.8l-1.4,0.8l0,0L297,398.5z M302.8,386.7l-1.4-0.8
		l1.4-0.8l1.4-0.8l2.9,1.7l-2.9,1.7L302.8,386.7z M307,390.9l-2.9,1.7l-2.9-1.7l1.4-0.8l1.4-0.8L307,390.9z M302.8,381.7l-1.4-0.8
		l2.9-1.7l2.9,1.7l-2.9,1.7L302.8,381.7z M301.2,379.2l-1.4,0.8l-2.9-1.7l1.4-0.8l1.4-0.8l1.4,0.8l1.4,0.8L301.2,379.2z
		 M301.2,382.6l1.4,0.8l-1.4,0.8l-1.4,0.8l-2.9-1.7l2.9-1.7L301.2,382.6z M301.2,387.6l1.4,0.8l-1.4,0.8l-1.4,0.8l-2.9-1.7l2.9-1.7
		L301.2,387.6z M301.2,392.6l1.4,0.8l-1.4,0.8l-1.4,0.8l-1.4-0.8l-1.4-0.8l2.9-1.7L301.2,392.6z M301.3,396l1.4-0.8l1.4-0.8l2.9,1.7
		l-2.9,1.7l-1.4-0.8L301.3,396z M305.7,393.5l1.4-0.8l1.4-0.8l2.9,1.7l-2.9,1.7l-1.4-0.8L305.7,393.5z M307.1,389.3l-1.4-0.8
		l1.4-0.8l1.4-0.8l2.9,1.7l-2.9,1.7L307.1,389.3z M307.1,384.2l-1.4-0.8l1.4-0.8l1.4-0.8l2.9,1.7l-2.9,1.7L307.1,384.2z
		 M307.1,379.2l-1.4-0.8l1.4-0.8l1.4-0.8l2.9,1.7l-2.9,1.7L307.1,379.2z M304.2,377.5l-1.4-0.8l-1.4-0.8l1.4-0.8l1.4-0.8l2.9,1.7
		L304.2,377.5z M299.8,374.9l-2.9-1.7l2.9-1.7l1.4,0.8l1.4,0.8L299.8,374.9z M295.5,372.4l-2.9-1.7l0.6-0.3l2.3-1.3l1.4,0.8l1.4,0.8
		L295.5,372.4z M296.9,375l1.4,0.8l-1.4,0.8l-1.4,0.8l-2.9-1.7l1-0.6l1.9-1.1L296.9,375z M296.9,380l1.4,0.8l-2.9,1.7l-2.9-1.7
		l2.9-1.7L296.9,380z M296.9,385.1l1.4,0.8l-1.4,0.8l-1.4,0.8l0,0l-2.9-1.7l2.9-1.7L296.9,385.1z M298.3,390.9l-1.4,0.8l-1.4,0.8
		l-2.9-1.7l2.9-1.7L298.3,390.9z M296.9,395.2l1.4,0.8l-1.4,0.8l-1.4,0.8l-2.9-1.7l2.9-1.7L296.9,395.2z M295.5,399.4l1.4,0.8
		l1.4,0.8l-1.4,0.8l-1.4,0.8l-2.9-1.7l1.8-1L295.5,399.4z M299.8,405.2l-2.9-1.7l1.4-0.8l1.4-0.8l1.4,0.8l1.4,0.8L299.8,405.2z
		 M304.2,402.7l-1.4-0.8l-1.4-0.8l1.4-0.8l1.4-0.8l1.4,0.8l1.4,0.8L304.2,402.7z M308.5,400.2l-1.4-0.8l-1.4-0.8l2.9-1.7l2.9,1.7
		L308.5,400.2z M312.2,397.2l-2.1-1.2l2.1-1.2V397.2z M312.2,392.2l-2.1-1.2l2.1-1.2V392.2z M312.2,387.1l-2.1-1.2l2.1-1.2V387.1z
		 M312.2,382.1l-2.1-1.2l2.1-1.2V382.1z M312.2,377l-2.1-1.2l2.1-1.2V377z M308.5,371.7l2.9,1.7l-2.9,1.7l-2.9-1.7l1.4-0.8
		L308.5,371.7z M304.2,369.1l2.9,1.7l-2.9,1.7l-2.9-1.7l1.4-0.8L304.2,369.1z M299.8,366.6l2.9,1.7l-1.4,0.8l-1.4,0.8l-1.4-0.8
		l-1.4-0.8l1.4-0.8L299.8,366.6z M298.3,365.7l-1.4,0.8l-1.4,0.8l-2.9-1.7l0.9-0.5l2-1.1L298.3,365.7z M291.8,362l2.1,1.2l-1.1,0.6
		l-1.1,0.6L291.8,362L291.8,362z M291.8,367l2.1,1.2l-1.2,0.7l-0.9,0.5V367z M291.8,372.1l2.1,1.2l-2.1,1.2V372.1z M291.8,377.1
		l2.1,1.2l-2.1,1.2V377.1z M291.8,382.2l2.1,1.2l-2.1,1.2V382.2z M291.8,387.2l2.1,1.2l-2.1,1.2V387.2z M291.8,392.3l2.1,1.2
		l-2.1,1.2V392.3z M291.8,397.3l0.4,0.3l1.7,1l-2.1,1.2V397.3z M291.8,402.4l1.1,0.7l1,0.6l-2.1,1.2V402.4z M291.8,407.4l1,0.6
		l1.1,0.6l-2.1,1.2V407.4z M273.6,400.2l-2.9-1.7l2.9-1.7l2.9,1.7l-1.4,0.8L273.6,400.2z M285.2,373.3l-1.4,0.8l-1.4,0.8l-2.9-1.7
		l1.4-0.8l1.4-0.8l0,0L285.2,373.3z M280.9,389.3l-1.4-0.8l1.4-0.8l1.4-0.8l2.9,1.7l-2.9,1.7L280.9,389.3z M285.2,393.5l-1.4,0.8
		l-1.4,0.8l-1.4-0.8l-1.4-0.8l1.4-0.8l1.4-0.8L285.2,393.5z M280.9,384.2l-1.4-0.8l1.4-0.8l1.4-0.8l2.9,1.7l-2.9,1.7L280.9,384.2z
		 M280.9,379.2l-1.4-0.8l1.4-0.8l1.4-0.8l1.4,0.8l1.4,0.8l-2.9,1.7L280.9,379.2z M280.8,380.9l-1.4,0.8l-1.4,0.8l-2.9-1.7l2.9-1.7
		L280.8,380.9z M279.4,385.1l1.4,0.8l-1.4,0.8l-1.4,0.8l-2.9-1.7l2.9-1.7L279.4,385.1z M279.4,390.1l1.4,0.8l-2.9,1.7l-2.9-1.7
		l2.9-1.7L279.4,390.1z M279.4,395.2l1.4,0.8l-1.4,0.8l-1.4,0.8l-2.9-1.7l2.9-1.7L279.4,395.2z M282.3,396.9l2.9,1.7l-2.9,1.7
		l-1.4-0.8l-1.4-0.8L282.3,396.9z M286.7,399.4l2.9,1.7l-0.6,0.3l-2.3,1.3l-1.4-0.8l-1.4-0.8L286.7,399.4z M285.3,396.8l-1.4-0.8
		l1.4-0.8l1.4-0.8l2.9,1.7l-1,0.6l-1.9,1.1L285.3,396.8z M285.3,391.8l-1.4-0.8l2.9-1.7l2.9,1.7l-2.9,1.7L285.3,391.8z M285.3,386.7
		l-1.4-0.8l1.4-0.8l1.4-0.8l0,0l2.9,1.7l-2.9,1.7L285.3,386.7z M283.9,380.9l1.4-0.8l1.4-0.8l2.9,1.7l-2.9,1.7L283.9,380.9z
		 M285.3,376.6l-1.4-0.8l1.4-0.8l1.4-0.8l2.9,1.7l-2.9,1.7L285.3,376.6z M286.7,372.4l-1.4-0.8l-1.4-0.8l1.4-0.8l1.4-0.8l2.9,1.7
		l-1.8,1L286.7,372.4z M280.8,375.8l-1.4,0.8l-1.4,0.8l-2.9-1.7l2.9-1.7l1.4,0.8L280.8,375.8z M276.5,378.3l-1.4,0.8l-1.4,0.8
		l-2.9-1.7l2.9-1.7l1.4,0.8L276.5,378.3z M275,382.6l1.4,0.8l-1.4,0.8l-1.4,0.8l-2.9-1.7l2.9-1.7L275,382.6z M275,387.6l1.4,0.8
		l-1.4,0.8l-1.4,0.8l-2.9-1.7l2.9-1.7L275,387.6z M275,392.6l1.4,0.8l-1.4,0.8l-1.4,0.8l-2.9-1.7l2.9-1.7L275,392.6z M278,402.7
		l-2.9-1.7l2.9-1.7l2.9,1.7l-1.4,0.8L278,402.7z M282.3,405.2l-2.9-1.7l1.4-0.8l1.4-0.8l1.4,0.8l1.4,0.8l-1.4,0.8L282.3,405.2z
		 M283.9,406.1l1.4-0.8l1.4-0.8l2.9,1.7l-0.9,0.5l-2,1.1L283.9,406.1z M290.3,409.8l-2.1-1.2l1.1-0.6l1.1-0.6L290.3,409.8
		L290.3,409.8z M290.3,404.8l-2.1-1.2l1.2-0.7l0.9-0.5L290.3,404.8L290.3,404.8z M290.3,399.7l-2.1-1.2l2.1-1.2V399.7z M290.3,394.7
		l-2.1-1.2l2.1-1.2V394.7z M290.3,389.6l-2.1-1.2l2.1-1.2V389.6z M290.3,384.6l-2.1-1.2l2.1-1.2V384.6z M290.3,379.6l-2.1-1.2
		l2.1-1.2V379.6z M290.3,374.5l-0.4-0.3l-1.7-1l2.1-1.2V374.5z M290.3,369.5l-1.1-0.7l-1-0.6l2.1-1.2V369.5z M290.3,362v2.4l-1-0.6
		l-1.1-0.6L290.3,362z M286.7,364.1l2.8,1.6l-0.1,0.1l0.1,0.1l-1.7,1l-1.1,0.6l-2.9-1.7L286.7,364.1z M282.3,366.6l2.9,1.7l-1.4,0.8
		l-1.4,0.8l-1.4-0.8l-1.4-0.8L282.3,366.6z M278,369.1l1.4,0.8l1.4,0.8l-1.4,0.8l-1.4,0.8l-1.4-0.8l-1.4-0.8L278,369.1z
		 M273.6,371.7l1.4,0.8l1.4,0.8l-2.9,1.7l-2.9-1.7L273.6,371.7z M270,374.6l2.1,1.2L270,377V374.6z M270,379.7l2.1,1.2l-2.1,1.2
		V379.7z M270,384.7l2.1,1.2l-2.1,1.2V384.7z M270,389.7l2.1,1.2l-2.1,1.2V389.7z M270,394.8l2.1,1.2l-2.1,1.2V394.8z"/>
	<path id="XMLID_34_" class="st0" d="M264.8,424.9v-2.4c0-0.1-0.1-0.2-0.2-0.2h-5.8v-3.3h7c0.1,0,0.2-0.1,0.2-0.2v-2.4
		c0-0.1-0.1-0.2-0.2-0.2h-9.6c-0.1,0-0.2,0.1-0.2,0.2v14.4c0,0.1,0.1,0.2,0.2,0.2h2.4c0.1,0,0.2-0.1,0.2-0.2v-5.8h5.8
		C264.8,425.1,264.8,425,264.8,424.9z"/>
	<path class="st0" d="M278.8,430.9L273,416c-0.1-0.2-0.3-0.2-0.4,0l-5.8,14.9c-0.1,0.1,0,0.2,0.2,0.2h2.6c0.1,0,0.2,0,0.2-0.1
		l0.6-1.6h4.8l0.6,1.6c0,0.1,0.1,0.1,0.2,0.1h2.6C278.8,431.1,278.9,431,278.8,430.9z M271.4,426.9l1.5-4.4l1.5,4.4H271.4z"/>
	<path class="st0" d="M290.7,426.8c0,0,0.1-2.3-2.3-3.1c1.1-0.5,2.1-1.4,2.1-3.2c0-4.3-5-4.2-5-4.2h-4.8c-0.1,0-0.2,0.1-0.2,0.2
		v14.5c0,0.1,0.1,0.2,0.2,0.2h4.8C286.4,431.1,290.7,430.9,290.7,426.8z M283.2,418.9h2.2c0,0,2.2,0,2.2,1.8c0,1.6-2.2,1.6-2.2,1.6
		h-2.2V418.9L283.2,418.9z M285.4,428.4h-2.2v-3.3h2.2c0,0,2.4-0.1,2.4,1.6C287.8,428.1,286.4,428.4,285.4,428.4z"/>
	<path id="XMLID_28_" class="st0" d="M295.8,416.3h-2.4c-0.1,0-0.2,0.1-0.2,0.2v14.5c0,0.1,0.1,0.2,0.2,0.2h7.8
		c0.1,0,0.2-0.1,0.2-0.2v-2.4c0-0.1-0.1-0.2-0.2-0.2H296v-11.9C296,416.4,295.9,416.3,295.8,416.3z"/>
	<path class="st0" d="M308.5,416c-0.1-0.2-0.3-0.2-0.4,0l-5.8,14.9c-0.1,0.1,0,0.2,0.2,0.2h2.6c0.1,0,0.2,0,0.2-0.1l0.6-1.6h4.8
		l0.6,1.6c0,0.1,0.1,0.1,0.2,0.1h2.6c0.2,0,0.2-0.1,0.2-0.2L308.5,416z M306.8,426.9l1.5-4.4l1.5,4.4H306.8z"/>
	<path class="st0" d="M323.8,423.7c1.1-0.5,2.1-1.4,2.1-3.2c0-4.3-5-4.2-5-4.2H316c-0.1,0-0.2,0.1-0.2,0.2v14.5
		c0,0.1,0.1,0.2,0.2,0.2h4.8c1,0,5.2-0.2,5.2-4.3C326.1,426.8,326.2,424.5,323.8,423.7z M318.6,418.9h2.2c0,0,2.2,0,2.2,1.8
		c0,1.6-2.2,1.6-2.2,1.6h-2.2V418.9z M320.9,428.4h-2.2v-3.3h2.2c0,0,2.4-0.1,2.4,1.6C323.2,428.1,321.8,428.4,320.9,428.4z"/>
	<path id="XMLID_22_" class="st0" d="M266.4,439c0.4,0,0.7,0.2,0.9,0.4c0,0,0.1,0,0.1,0l0.5-0.5c0,0,0-0.1,0-0.1
		c-0.4-0.4-0.9-0.6-1.5-0.6c-1.2,0-2.1,0.9-2.1,2.2c0,1.3,1,2.2,2.1,2.2c0.6,0,1.1-0.2,1.5-0.6c0,0,0-0.1,0-0.1l-0.5-0.5
		c0,0-0.1,0-0.1,0c-0.2,0.2-0.6,0.4-0.9,0.4c-0.7,0-1.3-0.5-1.3-1.4C265.1,439.6,265.6,439,266.4,439z"/>
	<path class="st0" d="M270,438.2c0,0-0.1,0-0.1,0l-1.7,4.3c0,0,0,0.1,0.1,0.1h0.7c0,0,0.1,0,0.1,0l0.2-0.4h1.4l0.2,0.4
		c0,0,0,0,0.1,0h0.7c0,0,0.1,0,0.1-0.1L270,438.2z M269.5,441.3l0.4-1.3l0.4,1.3H269.5z"/>
	<path id="XMLID_19_" class="st0" d="M274.3,441.7h-1.5v-3.4c0,0,0-0.1-0.1-0.1h-0.7c0,0-0.1,0-0.1,0.1v4.1c0,0,0,0.1,0.1,0.1h2.2
		c0,0,0.1,0,0.1-0.1L274.3,441.7C274.4,441.8,274.4,441.7,274.3,441.7z"/>
	<path class="st0" d="M275.9,438.3h-0.7c0,0-0.1,0-0.1,0.1v4.1c0,0,0,0.1,0.1,0.1h0.7c1,0,2.5-0.3,2.5-2.1
		C278.3,438.5,276.9,438.3,275.9,438.3z M275.9,441.8V439c0.9-0.1,1.6,0.2,1.6,1.4C277.5,441.7,276.4,441.8,275.9,441.8z"/>
	<path class="st0" d="M280.5,438.2c0,0-0.1,0-0.1,0l-1.7,4.3c0,0,0,0.1,0.1,0.1h0.7c0,0,0.1,0,0.1,0l0.2-0.4h1.4l0.2,0.4
		c0,0,0,0,0.1,0h0.7c0,0,0.1,0,0.1-0.1L280.5,438.2z M280,441.3l0.4-1.3l0.4,1.3H280z"/>
	<path id="XMLID_14_" class="st0" d="M284.4,440.2c-0.3-0.1-0.6-0.1-0.6-0.1c-0.3,0-0.5-0.2-0.5-0.5c0-0.4,0.2-0.5,0.5-0.5
		c0.3,0,0.5,0.1,0.5,0.4c0,0,0,0.1,0.1,0.1h0.7c0,0,0.1,0,0.1-0.1c0-0.7-0.6-1.2-1.3-1.2c-0.7,0-1.3,0.5-1.3,1.3
		c0,0.5,0.3,0.9,0.7,1.1c0.3,0.1,0.6,0.1,0.6,0.1c0.2,0,0.5,0.2,0.5,0.5c0,0.3-0.3,0.5-0.5,0.5s-0.5-0.2-0.5-0.5c0,0,0,0-0.1,0h-0.7
		c0,0-0.1,0-0.1,0c0,0.8,0.6,1.2,1.3,1.2c0.7,0,1.3-0.4,1.3-1.3C285.1,440.8,284.8,440.4,284.4,440.2z"/>
	<path class="st0" d="M288.7,438.3H288c0,0-0.1,0-0.1,0.1v4.1c0,0,0,0.1,0.1,0.1h0.7c1,0,2.5-0.3,2.5-2.1
		C291.1,438.5,289.7,438.3,288.7,438.3z M288.7,441.8V439c0.9-0.1,1.6,0.2,1.6,1.4C290.3,441.7,289.2,441.8,288.7,441.8z"/>
	<path class="st0" d="M293.3,438.2c0,0-0.1,0-0.1,0l-1.7,4.3c0,0,0,0.1,0.1,0.1h0.7c0,0,0.1,0,0.1,0l0.2-0.4h1.4l0.2,0.4
		c0,0,0,0,0.1,0h0.7c0,0,0.1,0,0.1-0.1L293.3,438.2z M292.8,441.3l0.4-1.3l0.4,1.3H292.8z"/>
	<path class="st0" d="M299.5,440.7c0.4-0.2,0.8-0.5,0.8-1.1c0-1.2-1.2-1.3-1.4-1.3h-1.4c0,0-0.1,0-0.1,0.1v4.1c0,0,0,0.1,0.1,0.1
		h0.7c0,0,0.1,0,0.1-0.1v-1.7h0.5l0.8,1.7c0,0,0,0,0.1,0h0.8c0,0,0.1,0,0.1-0.1C300.1,441.8,299.8,441.3,299.5,440.7z M298.9,440
		h-0.6v-1h0.6c0.1,0,0.6,0,0.6,0.5C299.5,440,299.1,440,298.9,440z"/>
	<path class="st0" d="M302.4,438.2c0,0-0.1,0-0.1,0l-1.7,4.3c0,0,0,0.1,0.1,0.1h0.7c0,0,0.1,0,0.1,0l0.2-0.4h1.4l0.2,0.4
		c0,0,0,0,0.1,0h0.7c0,0,0.1,0,0.1-0.1L302.4,438.2z M302,441.3l0.4-1.3l0.4,1.3H302z"/>
	<path id="XMLID_5_" class="st0" d="M305.3,438.3h-0.7c0,0-0.1,0-0.1,0.1v4.1c0,0,0,0.1,0.1,0.1h0.7c0,0,0.1,0,0.1-0.1L305.3,438.3
		C305.3,438.3,305.3,438.3,305.3,438.3z"/>
	<path id="XMLID_4_" class="st0" d="M309.7,438.3H309c0,0-0.1,0-0.1,0.1v2.8l-1.9-2.8c0,0,0,0,0,0h-0.7c0,0-0.1,0-0.1,0.1v4.1
		c0,0,0,0.1,0.1,0.1h0.7c0,0,0.1,0,0.1-0.1v-2.8l1.9,2.8c0,0,0,0,0.1,0h0.7c0,0,0.1,0,0.1-0.1L309.7,438.3
		C309.8,438.3,309.8,438.3,309.7,438.3z"/>
	<path id="XMLID_3_" class="st0" d="M313.9,438.3h-0.7c0,0-0.1,0-0.1,0.1v1.7h-1.6v-1.7c0,0,0-0.1-0.1-0.1h-0.7c0,0-0.1,0-0.1,0.1
		v4.1c0,0,0,0.1,0.1,0.1h0.7c0,0,0.1,0,0.1-0.1v-1.7h1.6v1.7c0,0,0,0.1,0.1,0.1h0.7c0,0,0.1,0,0.1-0.1L313.9,438.3
		C313.9,438.3,313.9,438.3,313.9,438.3z"/>
	<path class="st0" d="M316.2,438.2c0,0-0.1,0-0.1,0l-1.7,4.3c0,0,0,0.1,0.1,0.1h0.7c0,0,0.1,0,0.1,0l0.2-0.4h1.4l0.2,0.4
		c0,0,0,0,0.1,0h0.7c0,0,0.1,0,0.1-0.1L316.2,438.2z M315.7,441.3l0.4-1.3l0.4,1.3H315.7z"/>
</g>
<g>
	<path d="M504.8,378.9c-1.5,0-3,0-3.7,0c0,0-0.2,0-0.5,0c-0.6,0-1.8,0-3.2,0c-2.1,0-3.7,1.7-3.7,3.7c0,0.8,0,3.4,0,3.6
		c0,0,0,3.2,0,3.9c0,2.1,1.7,3.7,3.7,3.7c1.4,0,3.7,0,3.7,0v7.5l7.4-7.5c0,0,0-10.2,0-11.2C508.6,380.5,506.9,378.9,504.8,378.9z"/>
	<path d="M478.7,411.7c3.2-1.1,5.7-3.7,6.8-6.8c0.3-0.8,0.5-1.7,0.6-2.6c0-0.3,0.1-0.7,0.1-1.1c0,0,0-3.7,0-3.7c0-0.4,0-0.7-0.1-1.1
		c-0.1-0.9-0.3-1.8-0.6-2.6c-1.1-3.2-3.7-5.7-6.8-6.8c-1.1-0.4-2.2-0.6-3.4-0.6h-22.8v10.6c0-1.1-0.2-2.1-0.6-3.1
		c-1.5-4.4-5.7-7.5-10.5-7.5c-0.6,0-10.5,0-11.2,0c-4.9,0-9,3.1-10.6,7.5c-0.3,1-0.6,2-0.6,3.1v0.2c0-0.2,0-0.5-0.1-0.7
		c0-0.1,0-0.2,0-0.3c0-0.2,0-0.3-0.1-0.4c0-0.3-0.1-0.6-0.1-0.8c-0.1-0.5-0.3-0.9-0.5-1.4c-0.3-0.8-0.7-1.6-1.2-2.3
		c-1-1.4-2.3-2.6-3.8-3.4c-0.8-0.4-1.6-0.8-2.5-1c-0.5-0.2-1.1-0.2-1.6-0.3c-0.3,0-0.6-0.1-0.9-0.1c-0.3,0-22.8,0-22.8,0v37.2h22.7
		c1.1,0,2.2-0.2,3.2-0.5c2-0.7,3.9-1.9,5.2-3.6c1.4-1.7,2.2-3.8,2.4-5.9c0-0.2,0.1-0.5,0.1-0.8v10.9h13.2V416h9.2h0v7.5h24.3v-5.1
		l5.1,5.1v0h15.8l-11.2-11.2C476.6,412.2,477.7,412,478.7,411.7z"/>
</g>
</svg>
