<?xml version="1.0" encoding="utf-8"?>
<!-- Generator: Adobe Illustrator 19.0.0, SVG Export Plug-In . SVG Version: 6.00 Build 0)  -->
<svg version="1.1" id="Calque_1" xmlns="http://www.w3.org/2000/svg" xmlns:xlink="http://www.w3.org/1999/xlink" x="0px" y="0px"
	 viewBox="0 0 800 600" style="enable-background:new 0 0 800 600;" xml:space="preserve">
<style type="text/css">
	.st0{clip-path:url(#SVGID_2_);fill:#000100;}
	.st1{clip-path:url(#SVGID_4_);}
	.st2{clip-path:url(#SVGID_6_);}
	.st3{clip-path:url(#SVGID_8_);fill:#BEBEBE;}
</style>
<g>
	<defs>
		<rect id="SVGID_1_" width="800" height="600"/>
	</defs>
	<clipPath id="SVGID_2_">
		<use xlink:href="#SVGID_1_"  style="overflow:visible;"/>
	</clipPath>
	<path class="st0" d="M289.9,500L795,208.3v0l0-583.3L289.9-666.5l-505.1,291.6v0l0,583.3L289.9,500z M387.5,404.5l-61.9-35.8
		l2.2-1.1l-2.2-1.1l38.3-22.1l23.6-13.6l63.8,36.8L387.5,404.5z M421.4,198.6l31.9-18.4l31.9-18.4l63.8,36.8L517.1,217l-31.9,18.4v0
		L421.4,198.6z M550.9-64.9L519-83.3l31.9-18.4l31.9-18.4l63.8,36.8l-63.8,36.8L550.9-64.9z M646.6,29.5l-63.8,36.8L519,29.5
		L550.9,11l31.9-18.4L646.6,29.5z M550.9-177.6L519-196l63.8-36.8l63.8,36.8l-63.8,36.8L550.9-177.6z M517.1-234l-31.9,18.4
		l-63.8-36.8l31.9-18.4l31.9-18.4l31.9,18.4l31.9,18.4L517.1-234z M517.1-158.1l31.9,18.4l-31.9,18.4l-31.9,18.4l-63.8-36.8
		l63.8-36.8L517.1-158.1z M517.1-45.3L549-26.9L517.1-8.5L485.2,9.9l-63.8-36.8l63.8-36.8L517.1-45.3z M517.1,67.4L549,85.8
		l-31.9,18.4l-31.9,18.4l-31.9-18.4l-31.9-18.4L485.2,49L517.1,67.4z M519,142.2l31.9-18.4l31.9-18.4l63.8,36.8L582.8,179
		l-31.9-18.4L519,142.2z M616.6,85.8l31.9-18.4L680.5,49l63.8,36.8l-63.8,36.8l-31.9-18.4L616.6,85.8z M648.6-8.5l-31.9-18.4
		l31.9-18.4l31.9-18.4l63.8,36.8L680.5,9.9L648.6-8.5z M648.6-121.2l-31.9-18.4l31.9-18.4l31.9-18.4l63.8,36.8l-63.8,36.8
		L648.6-121.2z M648.6-234l-31.9-18.4l31.9-18.4l31.9-18.4l63.8,36.8l-63.8,36.8L648.6-234z M582.8-271.9l-31.9-18.4L519-308.8
		l31.9-18.4l31.9-18.4l63.8,36.8L582.8-271.9z M485.2-328.3l-63.8-36.8l63.8-36.8l31.9,18.4l31.9,18.4L485.2-328.3z M387.6-384.7
		l-63.8-36.8l12.9-7.5l50.9-29.4l31.9,18.4l31.9,18.4L387.6-384.7z M419.5-327.2l31.9,18.4l-31.9,18.4l-31.9,18.4l-63.8-36.8
		l21.6-12.5l42.2-24.4L419.5-327.2z M419.5-214.5l31.9,18.4l-63.8,36.8L323.7-196l63.8-36.8L419.5-214.5z M419.5-101.7l31.9,18.4
		l-31.9,18.4l-31.9,18.4v0l-63.8-36.8l63.8-36.8L419.5-101.7z M451.4,29.5l-31.9,18.4l-31.9,18.4l-63.8-36.8l63.8-36.8L451.4,29.5z
		 M419.5,123.8l31.9,18.4l-31.9,18.4L387.6,179l-63.8-36.8l63.8-36.8L419.5,123.8z M387.6,218.1l31.9,18.4l31.9,18.4l-31.9,18.4
		l-31.9,18.4l-63.8-36.8l40.2-23.2L387.6,218.1z M485.2,348.2l-63.8-36.8l31.9-18.4l31.9-18.4l31.9,18.4l31.9,18.4L485.2,348.2z
		 M582.8,291.8l-31.9-18.4L519,254.9l31.9-18.4l31.9-18.4l31.9,18.4l31.9,18.4L582.8,291.8z M680.5,235.4L648.6,217l-31.9-18.4
		l63.8-36.8l63.8,36.8L680.5,235.4z M761.2,169.3l-46.9-27.1l46.9-27.1V169.3z M761.2,56.5l-46.9-27.1l46.9-27.1V56.5z M761.2-56.2
		l-46.9-27.1l46.9-27.1V-56.2z M761.2-169L714.3-196l46.9-27.1V-169z M761.2-281.7l-46.9-27.1l46.9-27.1V-281.7z M680.5-402
		l63.8,36.8l-63.8,36.8l-63.8-36.8l31.9-18.4L680.5-402z M582.8-458.4l63.8,36.8l-63.8,36.8L519-421.5l31.9-18.4L582.8-458.4z
		 M485.2-514.7l63.8,36.8l-31.9,18.4L485.2-441l-31.9-18.4l-31.9-18.4l31.9-18.4L485.2-514.7z M451.4-534.2l-31.9,18.4l-31.9,18.4
		l-63.8-36.8l20.2-11.7l43.6-25.2L451.4-534.2z M306.8-617.7l46.9,27.1l-23.4,13.5l-23.5,13.6V-617.7z M306.8-505l46.9,27.1
		l-26.5,15.3l-20.4,11.8V-505z M306.8-392.2l46.9,27.1l-46.9,27.1V-392.2z M306.8-279.5l46.9,27.1l-46.9,27.1V-279.5z M306.8-166.8
		l46.9,27.1l-46.9,27.1V-166.8z M306.8-54l46.9,27.1L306.8,0.2V-54z M306.8,58.7l46.9,27.1l-46.9,27.1V58.7z M306.8,171.5l9.9,5.7
		l37,21.4l-46.9,27.1V171.5z M306.8,284.2l25.3,14.6l21.6,12.5l-46.9,27.1V284.2z M306.8,397l23.3,13.4l23.6,13.6l-46.9,27.1V397z
		 M-100.7,235.4l-63.8-36.8l63.8-36.8l63.8,36.8L-68.8,217L-100.7,235.4z M158.4-365.1l-31.9,18.4l-31.9,18.4l-63.8-36.8l31.9-18.4
		L94.6-402v0L158.4-365.1z M62.7-8.5L30.8-26.9l31.9-18.4l31.9-18.4l63.8,36.8L94.6,9.9L62.7-8.5z M158.4,85.9l-31.9,18.4
		l-31.9,18.4l-31.9-18.4L30.8,85.8l31.9-18.4L94.6,49L158.4,85.9z M62.7-121.2l-31.9-18.4l31.9-18.4l31.9-18.4l63.8,36.8l-63.8,36.8
		L62.7-121.2z M62.7-234l-31.9-18.4l31.9-18.4l31.9-18.4l31.9,18.4l31.9,18.4l-63.8,36.8L62.7-234z M60.8-196l-31.9,18.4L-3-159.2
		L-66.9-196L-3-232.9L60.8-196z M28.9-101.7l31.9,18.4L28.9-64.8L-3-46.4l-63.8-36.8L-3-120.1L28.9-101.7z M28.9,11.1l31.9,18.4
		L-3,66.3l-63.8-36.8L-3-7.4L28.9,11.1z M28.9,123.8l31.9,18.4l-31.9,18.4L-3,179.1l-63.8-36.8L-3,105.4L28.9,123.8z M94.6,161.7
		l63.8,36.8l-63.8,36.8L62.7,217l-31.9-18.4L94.6,161.7z M192.2,218.1l63.8,36.8l-12.9,7.5l-50.9,29.4l-31.9-18.4L128.4,255
		L192.2,218.1z M160.3,160.6l-31.9-18.4l31.9-18.4l31.9-18.4l63.8,36.8l-21.6,12.5l-42.2,24.4L160.3,160.6z M160.3,47.9l-31.9-18.4
		l63.8-36.8l63.8,36.8l-63.8,36.8L160.3,47.9z M160.3-64.8l-31.9-18.4l31.9-18.4l31.9-18.4v0l63.8,36.8l-63.8,36.8L160.3-64.8z
		 M128.4-196l31.9-18.4l31.9-18.4l63.8,36.8l-63.8,36.8L128.4-196z M160.3-290.3l-31.9-18.4l31.9-18.4l31.9-18.4l63.8,36.8
		l-63.8,36.8L160.3-290.3z M192.2-384.6l-31.9-18.4l-31.9-18.4l31.9-18.4l31.9-18.4l63.8,36.8l-40.2,23.2L192.2-384.6z M60.8-308.7
		l-31.9,18.4L-3-271.9l-63.8-36.8L-3-345.6l31.9,18.4L60.8-308.7z M-36.9-252.4L-68.8-234l-31.9,18.4l-63.8-36.8l63.8-36.8
		l31.9,18.4L-36.9-252.4z M-68.8-158.1l31.9,18.4l-31.9,18.4l-31.9,18.4l-63.8-36.8l63.8-36.8L-68.8-158.1z M-68.8-45.3l31.9,18.4
		L-68.8-8.5l-31.9,18.4l-63.8-36.8l63.8-36.8L-68.8-45.3z M-68.8,67.4l31.9,18.4l-31.9,18.4l-31.9,18.4l-63.8-36.8l63.8-36.8
		L-68.8,67.4z M-3,291.8L-66.8,255L-3,218.1L60.8,255l-31.9,18.4L-3,291.8z M94.6,348.2l-63.8-36.8l31.9-18.4l31.9-18.4l31.9,18.4
		l31.9,18.4l-31.9,18.4L94.6,348.2z M128.4,367.7l31.9-18.4l31.9-18.4l63.8,36.8l-20.2,11.7l-43.6,25.2L128.4,367.7z M273,451.1
		l-46.9-27.1l23.4-13.5L273,397V451.1z M273,338.4l-46.9-27.1l26.5-15.3l20.4-11.8V338.4z M273,225.7l-46.9-27.1l46.9-27.1V225.7z
		 M273,112.9l-46.9-27.1L273,58.8V112.9z M273,0.2l-46.9-27.1L273-54V0.2z M273-112.5l-46.9-27.1l46.9-27.1V-112.5z M273-225.3
		l-46.9-27.1l46.9-27.1V-225.3z M273-338l-9.9-5.7l-37-21.4l46.9-27.1V-338z M273-450.8l-25.3-14.6l-21.6-12.5L273-505V-450.8z
		 M273-617.7v54.2L249.7-577l-23.6-13.6L273-617.7z M192.2-571.1l61.9,35.8l-2.2,1.1l2.2,1.1L215.9-511l-23.6,13.6l-63.8-36.8
		L192.2-571.1z M94.6-514.7l63.8,36.8l-31.9,18.4L94.6-441l-31.9-18.4l-31.9-18.4L94.6-514.7z M-3-458.3l31.9,18.4l31.9,18.4
		l-31.9,18.4L-3-384.6l-31.9-18.4l-31.9-18.4L-3-458.3z M-100.7-402l31.9,18.4l31.9,18.4l-63.8,36.8l-63.8-36.8L-100.7-402z
		 M-181.4-335.8l46.9,27.1l-46.9,27.1V-335.8z M-181.4-223.1l46.9,27.1l-46.9,27.1V-223.1z M-181.4-110.3l46.9,27.1l-46.9,27.1
		V-110.3z M-181.4,2.4l46.9,27.1l-46.9,27.1V2.4z M-181.4,115.1l46.9,27.1l-46.9,27.1V115.1z"/>
</g>
<g>
	<defs>
		<rect id="SVGID_3_" width="800" height="600"/>
	</defs>
	<clipPath id="SVGID_4_">
		<use xlink:href="#SVGID_3_"  style="overflow:visible;"/>
	</clipPath>
	<g class="st1">
		<defs>
			<rect id="SVGID_5_" x="-8" y="626.3" width="814.9" height="618.2"/>
		</defs>
		<clipPath id="SVGID_6_">
			<use xlink:href="#SVGID_5_"  style="overflow:visible;"/>
		</clipPath>
		<g class="st2">
			<defs>
				<rect id="SVGID_7_" width="800" height="600"/>
			</defs>
			<clipPath id="SVGID_8_">
				<use xlink:href="#SVGID_7_"  style="overflow:visible;"/>
			</clipPath>
			<path class="st3" d="M280.4,1037.7l291.5-168.3v0l0-336.6L280.4,364.6L-11.1,532.9v0l0,336.6L280.4,1037.7z M336.8,982.7L301,962
				l1.3-0.6l-1.3-0.6l22.1-12.8l13.6-7.9l36.8,21.3L336.8,982.7z M356.3,863.8l18.4-10.6l18.4-10.6l36.8,21.3l-18.4,10.6l-18.4,10.6
				v0L356.3,863.8z M431.1,711.8l-18.4-10.6l18.4-10.6l18.4-10.6l36.8,21.3l-36.8,21.3L431.1,711.8z M486.3,766.2l-36.8,21.3
				l-36.8-21.3l18.4-10.6l18.4-10.6L486.3,766.2z M431.1,646.7l-18.4-10.6l36.8-21.3l36.8,21.3l-36.8,21.3L431.1,646.7z
				 M411.6,614.2l-18.4,10.6l-36.8-21.3l18.4-10.6l18.4-10.6l18.4,10.6l18.4,10.6L411.6,614.2z M411.6,658l18.4,10.6l-18.4,10.6
				l-18.4,10.6l-36.8-21.3l36.8-21.3L411.6,658z M411.6,723l18.4,10.6l-18.4,10.6l-18.4,10.6l-36.8-21.3l36.8-21.3L411.6,723z
				 M411.6,788.1l18.4,10.6l-18.4,10.6L393.1,820l-18.4-10.6l-18.4-10.6l36.8-21.3L411.6,788.1z M412.7,831.3l18.4-10.6l18.4-10.6
				l36.8,21.3l-36.8,21.3l-18.4-10.6L412.7,831.3z M469,798.7l18.4-10.6l18.4-10.6l36.8,21.3L505.8,820l-18.4-10.6L469,798.7z
				 M487.4,744.3L469,733.7l18.4-10.6l18.4-10.6l36.8,21.3l-36.8,21.3L487.4,744.3z M487.4,679.2L469,668.6l18.4-10.6l18.4-10.6
				l36.8,21.3l-36.8,21.3L487.4,679.2z M487.4,614.2L469,603.5l18.4-10.6l18.4-10.6l36.8,21.3l-36.8,21.3L487.4,614.2z M449.5,592.3
				l-18.4-10.6L412.7,571l18.4-10.6l18.4-10.6l36.8,21.3L449.5,592.3z M393.1,559.7l-36.8-21.3l36.8-21.3l18.4,10.6l18.4,10.6
				L393.1,559.7z M336.8,527.2L300,505.9l7.5-4.3l29.4-17l18.4,10.6l18.4,10.6L336.8,527.2z M355.2,560.4l18.4,10.6l-18.4,10.6
				l-18.4,10.6L300,571l12.5-7.2l24.4-14.1L355.2,560.4z M355.2,625.4l18.4,10.6l-36.8,21.3L300,636.1l36.8-21.3L355.2,625.4z
				 M355.2,690.5l18.4,10.6l-18.4,10.6l-18.4,10.6v0L300,701.1l36.8-21.3L355.2,690.5z M373.6,766.2l-18.4,10.6l-18.4,10.6
				L300,766.2l36.8-21.3L373.6,766.2z M355.2,820.6l18.4,10.6l-18.4,10.6l-18.4,10.6L300,831.3l36.8-21.3L355.2,820.6z M336.8,875.1
				l18.4,10.6l18.4,10.6L355.2,907l-18.4,10.6L300,896.3l23.2-13.4L336.8,875.1z M393.1,950.1l-36.8-21.3l18.4-10.6l18.4-10.6
				l18.4,10.6l18.4,10.6L393.1,950.1z M449.5,917.6L431.1,907l-18.4-10.6l18.4-10.6l18.4-10.6l18.4,10.6l18.4,10.6L449.5,917.6z
				 M505.8,885.1l-18.4-10.6L469,863.8l36.8-21.3l36.8,21.3L505.8,885.1z M552.4,846.9l-27.1-15.6l27.1-15.6V846.9z M552.4,781.8
				l-27.1-15.6l27.1-15.6V781.8z M552.4,716.8l-27.1-15.6l27.1-15.6V716.8z M552.4,651.7l-27.1-15.6l27.1-15.6V651.7z M552.4,586.6
				L525.4,571l27.1-15.6V586.6z M505.8,517.2l36.8,21.3l-36.8,21.3L469,538.5l18.4-10.6L505.8,517.2z M449.5,484.7l36.8,21.3
				l-36.8,21.3l-36.8-21.3l18.4-10.6L449.5,484.7z M393.1,452.2l36.8,21.3L411.5,484l-18.4,10.6L374.7,484l-18.4-10.6l18.4-10.6
				L393.1,452.2z M373.6,440.9l-18.4,10.6l-18.4,10.6L300,440.9l11.7-6.7l25.2-14.5L373.6,440.9z M290.2,392.7l27.1,15.6l-13.5,7.8
				l-13.5,7.8V392.7z M290.2,457.8l27.1,15.6l-15.3,8.8l-11.8,6.8V457.8z M290.2,522.8l27.1,15.6l-27.1,15.6V522.8z M290.2,587.9
				l27.1,15.6l-27.1,15.6V587.9z M290.2,653l27.1,15.6l-27.1,15.6V653z M290.2,718l27.1,15.6l-27.1,15.6V718z M290.2,783.1
				l27.1,15.6l-27.1,15.6V783.1z M290.2,848.2l5.7,3.3l21.4,12.3l-27.1,15.6V848.2z M290.2,913.2l14.6,8.4l12.5,7.2l-27.1,15.6
				V913.2z M290.2,978.3l13.4,7.8l13.6,7.9l-27.1,15.6V978.3z M55,885.1l-36.8-21.3L55,842.6l36.8,21.3l-18.4,10.6L55,885.1z
				 M204.6,538.5l-18.4,10.6l-18.4,10.6l-36.8-21.3l18.4-10.6l18.4-10.6v0L204.6,538.5z M149.3,744.3l-18.4-10.6l18.4-10.6
				l18.4-10.6l36.8,21.3L167.7,755L149.3,744.3z M204.5,798.8l-18.4,10.6L167.7,820l-18.4-10.6l-18.4-10.6l18.4-10.6l18.4-10.6
				L204.5,798.8z M149.3,679.3l-18.4-10.6l18.4-10.6l18.4-10.6l36.8,21.3l-36.8,21.3L149.3,679.3z M149.3,614.2l-18.4-10.6
				l18.4-10.6l18.4-10.6l18.4,10.6l18.4,10.6l-36.8,21.3L149.3,614.2z M148.2,636.1l-18.4,10.6l-18.4,10.6l-36.8-21.3l36.8-21.3
				L148.2,636.1z M129.8,690.5l18.4,10.6l-18.4,10.6l-18.4,10.6l-36.8-21.3l36.8-21.3L129.8,690.5z M129.8,755.6l18.4,10.6
				l-36.8,21.3l-36.8-21.3l36.8-21.3L129.8,755.6z M129.8,820.7l18.4,10.6l-18.4,10.6l-18.4,10.6l-36.8-21.3l36.8-21.3L129.8,820.7z
				 M167.7,842.6l36.8,21.3l-36.8,21.3l-18.4-10.6l-18.4-10.6L167.7,842.6z M224.1,875.1l36.8,21.3l-7.5,4.3l-29.4,17L205.7,907
				l-18.4-10.6L224.1,875.1z M205.7,841.9l-18.4-10.6l18.4-10.6l18.4-10.6l36.8,21.3l-12.5,7.2l-24.4,14.1L205.7,841.9z
				 M205.7,776.9l-18.4-10.6l36.8-21.3l36.8,21.3l-36.8,21.3L205.7,776.9z M205.7,711.8l-18.4-10.6l18.4-10.6l18.4-10.6v0l36.8,21.3
				l-36.8,21.3L205.7,711.8z M187.2,636.1l18.4-10.6l18.4-10.6l36.8,21.3l-36.8,21.3L187.2,636.1z M205.7,581.7L187.2,571l18.4-10.6
				l18.4-10.6l36.8,21.3l-36.8,21.3L205.7,581.7z M224.1,527.2l-18.4-10.6L187.2,506l18.4-10.6l18.4-10.6l36.8,21.3l-23.2,13.4
				L224.1,527.2z M148.2,571l-18.4,10.6l-18.4,10.6L74.5,571l36.8-21.3l18.4,10.6L148.2,571z M91.8,603.6l-18.4,10.6L55,624.8
				l-36.8-21.3L55,582.3l18.4,10.6L91.8,603.6z M73.4,658l18.4,10.6l-18.4,10.6L55,689.9l-36.8-21.3L55,647.4L73.4,658z M73.4,723.1
				l18.4,10.6l-18.4,10.6L55,755l-36.8-21.3L55,712.4L73.4,723.1z M73.4,788.1l18.4,10.6l-18.4,10.6L55,820l-36.8-21.3L55,777.5
				L73.4,788.1z M111.4,917.6l-36.8-21.3l36.8-21.3l36.8,21.3L129.8,907L111.4,917.6z M167.7,950.1l-36.8-21.3l18.4-10.6l18.4-10.6
				l18.4,10.6l18.4,10.6l-18.4,10.6L167.7,950.1z M187.2,961.4l18.4-10.6l18.4-10.6l36.8,21.3l-11.7,6.7l-25.2,14.5L187.2,961.4z
				 M270.7,1009.6l-27.1-15.6l13.5-7.8l13.5-7.8V1009.6z M270.7,944.5l-27.1-15.6l15.3-8.8l11.8-6.8V944.5z M270.7,879.5l-27.1-15.6
				l27.1-15.6V879.5z M270.7,814.4l-27.1-15.6l27.1-15.6V814.4z M270.7,749.3l-27.1-15.6l27.1-15.6V749.3z M270.7,684.3l-27.1-15.6
				l27.1-15.6V684.3z M270.7,619.2l-27.1-15.6l27.1-15.6V619.2z M270.7,554.1l-5.7-3.3l-21.4-12.3l27.1-15.6V554.1z M270.7,489.1
				l-14.6-8.4l-12.5-7.2l27.1-15.6V489.1z M270.7,392.7V424l-13.4-7.8l-13.6-7.9L270.7,392.7z M224.1,419.6l35.7,20.6l-1.3,0.6
				l1.3,0.6l-22.1,12.8l-13.6,7.9l-36.8-21.3L224.1,419.6z M167.7,452.2l36.8,21.3l-18.4,10.6l-18.4,10.6l-18.4-10.6l-18.4-10.6
				L167.7,452.2z M111.4,484.7l18.4,10.6l18.4,10.6l-18.4,10.6l-18.4,10.6L93,516.6L74.5,506L111.4,484.7z M55,517.2l18.4,10.6
				l18.4,10.6L55,559.8l-36.8-21.3L55,517.2z M8.4,555.4L35.5,571L8.4,586.7V555.4z M8.4,620.5l27.1,15.6L8.4,651.7V620.5z
				 M8.4,685.5l27.1,15.6L8.4,716.8V685.5z M8.4,750.6l27.1,15.6L8.4,781.8V750.6z M8.4,815.7l27.1,15.6L8.4,846.9V815.7z"/>
		</g>
	</g>
</g>
</svg>
